<mxfile host="app.diagrams.net" agent="Mozilla/5.0 (X11; CrOS x86_64 14541.0.0) AppleWebKit/537.36 (KHTML, like Gecko) Chrome/126.0.0.0 Safari/537.36" version="24.7.6">
  <diagram name="Page-1" id="XPnpl8zCX7bbvhjE2bJl">
    <mxGraphModel dx="880" dy="460" grid="1" gridSize="10" guides="1" tooltips="1" connect="1" arrows="1" fold="1" page="1" pageScale="1" pageWidth="850" pageHeight="1100" math="0" shadow="0">
      <root>
        <mxCell id="0" />
        <mxCell id="1" parent="0" />
        <mxCell id="O1MI6WPefpt3-lEOd12h-1" value="siswa" style="shape=umlActor;verticalLabelPosition=bottom;verticalAlign=top;html=1;outlineConnect=0;" vertex="1" parent="1">
          <mxGeometry x="110" y="160" width="90" height="150" as="geometry" />
        </mxCell>
        <mxCell id="O1MI6WPefpt3-lEOd12h-4" value="" style="rounded=0;whiteSpace=wrap;html=1;" vertex="1" parent="1">
          <mxGeometry x="240" y="70" width="320" height="630" as="geometry" />
        </mxCell>
        <mxCell id="O1MI6WPefpt3-lEOd12h-5" value="admin" style="shape=umlActor;verticalLabelPosition=bottom;verticalAlign=top;html=1;outlineConnect=0;" vertex="1" parent="1">
          <mxGeometry x="640" y="170" width="90" height="150" as="geometry" />
        </mxCell>
        <mxCell id="O1MI6WPefpt3-lEOd12h-9" value="Tabungan" style="text;html=1;align=center;verticalAlign=middle;whiteSpace=wrap;rounded=0;" vertex="1" parent="1">
          <mxGeometry x="336.25" y="80" width="145" height="60" as="geometry" />
        </mxCell>
        <mxCell id="O1MI6WPefpt3-lEOd12h-11" value="" style="ellipse;whiteSpace=wrap;html=1;" vertex="1" parent="1">
          <mxGeometry x="340" y="260" width="137.5" height="80" as="geometry" />
        </mxCell>
        <mxCell id="O1MI6WPefpt3-lEOd12h-12" value="menabung / menarik" style="text;html=1;align=center;verticalAlign=middle;whiteSpace=wrap;rounded=0;" vertex="1" parent="1">
          <mxGeometry x="336.25" y="270" width="145" height="60" as="geometry" />
        </mxCell>
        <mxCell id="O1MI6WPefpt3-lEOd12h-15" value="" style="ellipse;whiteSpace=wrap;html=1;" vertex="1" parent="1">
          <mxGeometry x="340" y="370" width="137.5" height="80" as="geometry" />
        </mxCell>
        <mxCell id="O1MI6WPefpt3-lEOd12h-16" value="melihat daftar siswa" style="text;html=1;align=center;verticalAlign=middle;whiteSpace=wrap;rounded=0;" vertex="1" parent="1">
          <mxGeometry x="337.5" y="380" width="145" height="60" as="geometry" />
        </mxCell>
        <mxCell id="O1MI6WPefpt3-lEOd12h-17" value="" style="ellipse;whiteSpace=wrap;html=1;" vertex="1" parent="1">
          <mxGeometry x="340" y="480" width="137.5" height="80" as="geometry" />
        </mxCell>
        <mxCell id="O1MI6WPefpt3-lEOd12h-18" value="melihat riwayat" style="text;html=1;align=center;verticalAlign=middle;whiteSpace=wrap;rounded=0;" vertex="1" parent="1">
          <mxGeometry x="332.5" y="490" width="145" height="60" as="geometry" />
        </mxCell>
        <mxCell id="O1MI6WPefpt3-lEOd12h-19" value="" style="ellipse;whiteSpace=wrap;html=1;" vertex="1" parent="1">
          <mxGeometry x="340" y="590" width="137.5" height="80" as="geometry" />
        </mxCell>
        <mxCell id="O1MI6WPefpt3-lEOd12h-20" value="melihat rekap" style="text;html=1;align=center;verticalAlign=middle;whiteSpace=wrap;rounded=0;" vertex="1" parent="1">
          <mxGeometry x="340" y="600" width="145" height="60" as="geometry" />
        </mxCell>
        <mxCell id="O1MI6WPefpt3-lEOd12h-22" value="" style="ellipse;whiteSpace=wrap;html=1;" vertex="1" parent="1">
          <mxGeometry x="340" y="150" width="137.5" height="80" as="geometry" />
        </mxCell>
        <mxCell id="O1MI6WPefpt3-lEOd12h-23" value="login" style="text;html=1;align=center;verticalAlign=middle;whiteSpace=wrap;rounded=0;" vertex="1" parent="1">
          <mxGeometry x="336.25" y="160" width="145" height="60" as="geometry" />
        </mxCell>
        <mxCell id="O1MI6WPefpt3-lEOd12h-25" value="" style="endArrow=none;html=1;rounded=0;entryX=0.025;entryY=0.377;entryDx=0;entryDy=0;entryPerimeter=0;" edge="1" parent="1" target="O1MI6WPefpt3-lEOd12h-23">
          <mxGeometry width="50" height="50" relative="1" as="geometry">
            <mxPoint x="200" y="180" as="sourcePoint" />
            <mxPoint x="340" y="190" as="targetPoint" />
          </mxGeometry>
        </mxCell>
        <mxCell id="O1MI6WPefpt3-lEOd12h-27" value="" style="endArrow=none;html=1;rounded=0;entryX=0;entryY=0.5;entryDx=0;entryDy=0;" edge="1" parent="1" source="O1MI6WPefpt3-lEOd12h-1" target="O1MI6WPefpt3-lEOd12h-16">
          <mxGeometry width="50" height="50" relative="1" as="geometry">
            <mxPoint x="210" y="220" as="sourcePoint" />
            <mxPoint x="360" y="370" as="targetPoint" />
          </mxGeometry>
        </mxCell>
        <mxCell id="O1MI6WPefpt3-lEOd12h-28" value="" style="endArrow=none;html=1;rounded=0;" edge="1" parent="1">
          <mxGeometry width="50" height="50" relative="1" as="geometry">
            <mxPoint x="480" y="190" as="sourcePoint" />
            <mxPoint x="630" y="190" as="targetPoint" />
          </mxGeometry>
        </mxCell>
        <mxCell id="O1MI6WPefpt3-lEOd12h-29" value="" style="endArrow=none;html=1;rounded=0;" edge="1" parent="1" target="O1MI6WPefpt3-lEOd12h-5">
          <mxGeometry width="50" height="50" relative="1" as="geometry">
            <mxPoint x="480" y="300" as="sourcePoint" />
            <mxPoint x="610" y="180" as="targetPoint" />
            <Array as="points">
              <mxPoint x="550" y="270" />
            </Array>
          </mxGeometry>
        </mxCell>
        <mxCell id="O1MI6WPefpt3-lEOd12h-30" value="" style="endArrow=none;html=1;rounded=0;exitX=1;exitY=0.5;exitDx=0;exitDy=0;" edge="1" parent="1">
          <mxGeometry width="50" height="50" relative="1" as="geometry">
            <mxPoint x="477.5" y="410" as="sourcePoint" />
            <mxPoint x="625" y="290" as="targetPoint" />
            <Array as="points">
              <mxPoint x="555" y="370" />
            </Array>
          </mxGeometry>
        </mxCell>
        <mxCell id="O1MI6WPefpt3-lEOd12h-31" value="" style="endArrow=none;html=1;rounded=0;" edge="1" parent="1">
          <mxGeometry width="50" height="50" relative="1" as="geometry">
            <mxPoint x="477.5" y="525" as="sourcePoint" />
            <mxPoint x="633.75" y="340" as="targetPoint" />
            <Array as="points">
              <mxPoint x="573.75" y="450" />
            </Array>
          </mxGeometry>
        </mxCell>
        <mxCell id="O1MI6WPefpt3-lEOd12h-32" value="" style="endArrow=none;html=1;rounded=0;" edge="1" parent="1">
          <mxGeometry width="50" height="50" relative="1" as="geometry">
            <mxPoint x="477.5" y="630" as="sourcePoint" />
            <mxPoint x="678" y="360" as="targetPoint" />
            <Array as="points">
              <mxPoint x="620" y="530" />
            </Array>
          </mxGeometry>
        </mxCell>
      </root>
    </mxGraphModel>
  </diagram>
</mxfile>
